<?xml version="1.0" encoding="UTF-8"?>
<svg id="Layer_2" data-name="Layer 2" xmlns="http://www.w3.org/2000/svg" viewBox="0 0 1001.62 1002.46">
  <defs>
    <style>
      .cls-1 {
        fill: #fdfefe;
      }

      .cls-2 {
        fill: #71beea;
      }

      .cls-3 {
        fill: #d2f0fe;
      }
    </style>
  </defs>
  <g id="Layer_1-2" data-name="Layer 1">
    <g>
      <path class="cls-2" d="M500.52,1002.38c-134.53,0-269.05,0-403.58,0q-11.9,0-11.87-12.24c.01-41.62,0-83.25,0-124.87,0-26.45-.08-52.91,.02-79.36,.01-3.51-.85-6.47-2.76-9.35-23.31-35.08-41.67-72.64-55.29-112.45-12.47-36.43-20.7-73.83-24.44-112.22-1.89-19.4-2.81-38.82-2.55-58.29,.49-36.36,5.11-72.22,13.32-107.65,7.48-32.31,18.32-63.49,32.04-93.62,10.62-23.32,22.97-45.76,37.37-67,1.87-2.76,2.51-5.51,2.46-8.84-.22-12.98-.22-25.97-.1-38.96,.06-6.44,.61-6.77,6.87-6.76,9.16,.02,18.32-.08,27.47,.07,3.19,.05,5.33-.77,7.65-3.33,28.1-31.08,59.34-58.48,94.16-82,27.27-18.42,55.92-34.12,86.15-46.81,30.51-12.8,62.11-22.33,94.64-28.89C441.58,1.85,481.42-1.15,521.6,.39c22.09,.84,44.01,3.41,65.87,7.09,29.14,4.9,57.51,12.59,85.16,22.61,25.63,9.29,50.45,20.65,74.16,34.27,30.37,17.44,58.81,37.53,85.07,60.74,15.47,13.67,30.18,28.04,43.7,43.63,1.63,1.87,3.61,2.1,5.84,2.09,9.99-.03,19.98,.1,29.97-.06,3.64-.06,4.82,1.19,5,4.89,.63,12.98,.42,25.97,.26,38.94-.06,5.13,1.35,9.33,4.09,13.47,30.65,46.31,52.36,96.61,65.89,150.38,6.07,24.15,10.19,48.69,12.68,73.54,2.76,27.59,2.86,55.22,1.34,82.77-1.82,33.04-7.43,65.62-16.14,97.61-9.86,36.19-23.42,70.94-41.04,104.05-7.34,13.8-15.24,27.29-24.01,40.25-1.95,2.88-2.78,5.81-2.78,9.31-.06,70.07-.26,140.13-.27,210.2,0,4.84-1.56,6.31-6.31,6.31-104.89-.11-209.78-.1-314.68-.11-31.63,0-63.27,0-94.9,0v.04Zm-9.48-330.77c-.27-3.96-.53-7.92-.8-11.88-.26-.03-.52-.05-.78-.08l-2.94,13.84c-3.78,16.8-9.09,33.27-8.2,50.92,.81,16-1.21,31.84-5.71,47.27-5.54,19-6.32,38.34-2.96,57.66,2.5,14.42,2.33,28.68,.96,43.09-1.67,17.58-1.69,35.15,.83,52.67,1.64,11.45,5.28,22.67,4.01,34.46-.03,.32,.08,.66,.15,.98,2.53,10.9,5.3,21.78,3.92,33.15-.17,1.4,.41,2.25,1.91,2.25,6.68,0,13.35,0,20.83,0-4.71-4.7-4.38-9.69-3.36-14.65,1.93-9.43,4.39-18.71,3.51-28.55-1.65-18.54-4.7-36.82-9.36-54.84-4.19-16.21-8.52-32.34-8.79-49.32-.25-16,3.23-31.31,6.81-46.67,3.25-13.95,6.19-27.95,3.17-42.35-1.53-7.32-.98-14.54,.46-21.75,1.18-5.87,1.83-11.76,1.79-17.77-.12-16.34-4.38-32.2-5.44-48.42ZM838.09,184.93c6.07-.8,10.61-4.73,16.14-7.5h-336.59c2.13,1.13,3.49,1.73,4.72,2.52,7.91,5.08,14.84,11.11,16.07,21.07,.81,6.57,.63,13.27,.96,19.91,.16,3.33-1.51,7.17,3.56,8.98,1.56,.56,1.61,3.79,1.17,6.03-.64,3.26-1.31,6.52-1.76,9.81-.36,2.69-1.55,4.99-3.84,6.11-4.16,2.04-5.19,5.59-6.01,9.64-2.45,12.12-18.02,25.32-30.09,26.4-9.47,.85-30.41-11.48-32.72-24.46-.93-5.24-2.3-9.9-7.49-12.65-1.75-.92-2.23-3.24-2.6-5.23-.58-3.1-1.03-6.22-1.61-9.31-.62-3.31-.85-6.35,3.27-7.66,1.8-.57,1.12-2.17,1.12-3.41-.03-7.32-.24-14.65-.1-21.97,.15-7.25,2.85-13.5,7.92-18.82,2.66-2.79,6.21-4.4,9.04-6.9H147.78c6.16,3.08,11.25,5.63,16.65,8.33,.28-7.42,1.82-9.09,6.16-6.68,13,7.21,25.85,14.85,30.25,30.48,1.23,4.35,3.81,6.16,7.63,7.46,11.99,4.07,24.47,6.07,36.77,8.79,21.94,4.87,42.78,11.94,60.12,27.08,6.67,5.82,14.15,10.12,23.26,11.6,16.2,2.63,31.52,7.97,45.62,16.58,2.44,1.49,5.07,1.72,8.11,1.11,5.83-1.15,11.82-2.16,17.73-2.09,15.25,.18,29.31,5.17,42.77,11.98,1.45,.74,3.6,1.01,3.74,3.31-5.09,1.83-10.29,1.35-15.42,1.35-4.18,0-8.5-.24-12.32,1.33-5.01,2.06-10.08,1.93-15.21,1.84-17.7-.3-35.09,2.07-52.17,6.4-12.45,3.15-24.21,3.26-35.13-4.55-1.75-1.25-3.7-2.23-5.58-3.28-5.09-2.86-10.33-5.5-16.12-6.47-20.1-3.34-37.88-12.26-54.81-22.97-22.17-14.02-43.9-28.75-69.56-36.02-2.38-.67-4.68-1.76-6.87-2.94-12.51-6.76-21.02-18.13-31.31-27.44-1-.91-1.82-2.61-1.02-3.63,3.18-4.08-.42-5.32-2.68-7.22-2.18-1.84-3.84-4.07-1.95-6.86,1-1.48,3-2.35,.68-4.22-2.41-1.94-3.31,.52-4.32,1.68-10.45,12.07-20.32,24.59-29,38.03-1.54,2.39-2.08,4.71-2.07,7.46,.09,15.32,.07,30.64,.08,45.95,0,13.65,.07,27.31-.05,40.96-.03,3.58,.08,5.42,4.78,4.19,7.38-1.92,15.05-2.5,22.72-1.77,2.47,.24,5.92,1.08,6.16-1.95,.18-2.27-3.49-2.32-5.76-2.57-5.93-.66-11.87-1.25-17.8-1.9-2.9-.32-6.18-.84-6-4.53,.19-3.94,3.75-3.54,6.51-3.54,4.98,0,9.92,.05,14.91,.81,8.02,1.23,16.16,2.42,24.28,.74,2.61-.54,6.36-.24,6.97-3.69,.55-3.13-2.93-4.09-4.96-5.61-3.07-2.3-6.3-4.29-7.36-8.39-.61-2.36-.14-4.41,1.41-6,1.95-2.01,3.74-.09,5.3,.9,4.34,2.73,7.69,6.9,12.66,8.74,3.97,1.46,6.51,4.3,8.42,8.04,4.43,8.72,11.57,13.98,21.26,15.51,16.63,2.63,33.23,.2,49.67-1.43,17.82-1.76,35.43-2.9,52.97,1.1,16.8,3.83,33.47,3.76,50.34,.51,23.79-4.57,47.53-9.79,72.04-8.44,2.09,.12,4.37-.41,6.32-1.21,4.29-1.75,8.71-1.92,13.22-2.02,4.48-.09,9.05,.08,13.43-.72,12.09-2.22,23.39-5.93,28.16-19.08,.89-2.44,1.71-2.73,4.15-1.04,7.06,4.88,13.92,10.38,23,11.24,11.92,1.13,20.37-6.02,29.07-12.34,1.97-1.43,2.87-2.27,3.74,.5,4.04,12.84,14.46,18.01,26.21,20.27,11.98,2.3,24.51,3.83,36.41,3.86,27.6,.07,54.04,6.69,80.96,10.46,12.2,1.71,24.09,1.6,36.03-1.04,14.18-3.14,28.56-4.96,43.02-3.42,19.18,2.04,38.34,3.98,57.64,3.68,12.33-.19,22.12-5.22,27.94-16.69,1.85-3.65,4.54-6.44,8.58-7.86,3.5-1.23,6.3-3.63,9.13-5.99,1.65-1.37,3.47-2.56,5.34-3.61,2.7-1.51,4.14-.2,4.43,2.51,.29,2.66,.15,5.17-1.91,7.44-2.27,2.49-5.02,4.33-7.59,6.4-1.28,1.03-3.15,1.67-2.92,3.65,.26,2.2,2.27,2.73,4.05,3.12,7.55,1.67,15.16,1.85,22.78,.54,7.23-1.25,14.5-1.78,21.83-1.43,2.12,.1,4.07,.7,4.58,3.06,.56,2.62-1.51,3.43-3.38,4.17-1.06,.42-2.21,.73-3.35,.85-6.43,.7-12.87,1.26-19.28,2.03-1.75,.21-4.34,.6-4.19,2.69,.15,2.1,2.71,1.33,4.2,1.32,8.48-.01,16.97,.1,25.29,1.93,3.7,.81,2.79-1.68,2.79-3.41,.04-29.8,.01-59.61,.05-89.41,0-2.08-.47-3.79-1.75-5.52-6.03-8.14-11.8-16.48-17.91-24.57-3.7-4.9-7.84-9.47-11.84-14.15-.56-.65-1.11-1.96-2.31-1.1-.79,.57-1.66,1.74-1.01,2.57,4.64,5.89-.85,8.11-3.93,11.19-.62,.62-2.39,.81-1.49,1.98,3.62,4.74-.24,7.38-2.87,10.04-5.03,5.07-10.54,9.67-15.53,14.77-3.32,3.39-7.01,6.01-11.15,8.26-6.66,3.62-14.36,4.32-21.04,7.47-13.96,6.58-27.66,13.7-40.77,21.94-14.19,8.91-27.88,18.73-43.57,25-7.55,3.02-15.13,6.03-23.25,7.16-11.72,1.63-21.33,8.13-31.36,13.57-5.88,3.19-11.55,4.83-18.47,3.28-22.72-5.09-45.6-9.21-69.07-8.05-.98,.05-2.09,.04-2.95-.37-6.74-3.2-13.93-2.77-21.08-2.73-4.66,.03-9.18-.74-14.53-2.18,4.97-2.06,9.23-3.46,13.14-5.52,16.22-8.55,33.32-10.81,51.15-7.21,4.6,.93,8.37,.21,12.26-2.1,11.97-7.1,24.82-12.15,38.56-14.29,11.22-1.74,20.47-6.32,29.21-13.68,9.22-7.77,19.73-13.98,31.33-18.16,17.73-6.39,36.25-9.49,54.52-13.64,8.86-2.01,16.88-4.32,19.45-14.94,1.23-5.04,4.23-9.92,8.61-13.18,5.59-4.17,11.42-8.06,17.38-11.68,6.28-3.8,8.23-2.56,8.39,4.73-.12,.04-.26,.06-.35,.14-.05,.04-.04,.18-.05,.27,.12-.15,.24-.3,.36-.45Zm-422.83,375.49c.16,.12,.31,.25,.46,.39-.19,1.31-.28,2.64-.6,3.92-4.56,18.32-5.83,37.06-6.31,55.81-.52,20.8-1.01,41.66,.03,62.42,.6,11.97-2.09,20.8-11.02,29.19-8.25,7.76-13.95,18.17-21.64,26.61-12.08,13.24-19.29,28.99-24.74,45.59-5.35,16.3-12.03,31.88-24,44.27-22.58,23.37-36.68,51.79-49.76,80.88-4.1,9.12-10.17,16.79-16.24,24.9,11.83,6.41,23.98,12.52,36.38,18.2,40.58,18.61,83.08,30.71,127.02,38.08,2.15,.36,2.93-.09,3.87-2.36,1.9-4.6,3.86-9.18,6.53-13.53,4.18-6.81,6.24-15.15,6.29-22.72,.06-9.94-2.38-20.04-5.24-29.8-4.95-16.9-12.37-32.96-16.88-50.01-4.47-16.91-7.1-33.97-6.56-51.58,.32-10.3,2.42-20.42,2.41-30.69-.02-11.03,1.4-21.84,3.14-32.69,1.96-12.22,.58-24.6-.51-36.74-1.16-12.86-3.55-25.65-3.53-38.6,.03-18.6,.15-37.2,.5-55.8,.34-18.12,.82-36.14,4.41-53.93,2.6-12.88,7.35-25.19,10.77-37.83,5.3-19.56,4.42-40,4.43-60.02,0-21.58-7.44-42.4-10.06-63.84-1.7-13.95-9.86-25.66-15.33-38.27-5.4-12.45-10.77-15.18-23.86-13.4-1.8,.25-3.59,.69-5.35,1.17-7.67,2.09-15.52,2.23-23.27,1.33-20.36-2.36-40.63-4.45-61.26-2.84-33.97,2.65-66.86-2.99-98.82-14.75-8.57-3.15-17.77-5.77-26.83-3.68-7.7,1.78-15.29,2.67-23.11,2.92-7.53,.24-14.76,1.88-21.51,5.55-3.18,1.73-6.73,2.85-10.21,3.93-1.7,.53-3.83,.57-4.74-1.59-.89-2.1,.37-3.59,2.05-4.54,1.87-1.06,3.9-1.84,5.87-2.72,3.64-1.63,7.3-3.22,10.92-4.89,1.1-.51,2.04-1.35,1.62-2.73-.46-1.52-1.91-1.25-2.95-1.07-2.12,.38-4.18,1.06-6.27,1.57-5.81,1.41-11.6,2.9-17.44,4.15-2.47,.53-5.58,.7-6.42-2.24-.84-2.96,2.33-3.51,4.34-4.4,5.81-2.56,11.99-3.88,18.17-5.17,1.68-.35,3.6-.49,4.37-3.03-4.44,0-8.56-.14-12.68,.04-4.3,.18-8.59,.77-12.89,.99-6.92,.35-6.95,.28-6.95,7.36-.02,89.41-.03,178.82-.04,268.22,0,57.28,0,114.56,0,171.84,0,2.49-.05,4.87,1.49,7.16,14.68,21.85,31.42,42.05,49.47,61.14,14.16,14.98,29.32,28.93,45.35,41.92,9.31,7.54,18.8,14.82,28.54,21.77,1.38,.98,2.88,3.26,4.91,.42,4.98-6.96,12.22-11.27,19.4-15.37,9.09-5.19,15.3-12.48,19.24-22.01,4.34-10.48,7.2-21.35,9.59-32.43,5.59-25.93,9.89-52.28,23.63-75.72,4.88-8.33,10.62-16,16.97-23.16,4.5-5.08,9.35-9.9,12.91-15.67,6.87-11.1,12.28-23.12,21.06-33.02,4.65-5.25,8.47-11.07,10.42-17.86,6.92-24.01,15.35-47.39,27.72-69.22,8.83-15.59,19.82-29.45,32.76-41.8Zm463.32-234.51c.53,1.76,1.42,1.75,2.2,1.97,7.02,2.02,14.06,3.98,21.03,6.15,2.12,.66,5.03,1.38,4.01,4.59-.92,2.9-3.8,2.52-5.99,2.06-6.49-1.36-12.88-3.22-19.38-4.5-2.31-.45-5.84-3.22-6.98-.01-1.09,3.08,3.21,3.41,5.39,4.64,4.19,2.38,9.2,2.95,13.11,5.99,1.48,1.15,2.41,2.39,1.66,4.23-.69,1.69-2.29,1.75-3.83,1.64-2.88-.21-5.53-1.23-8.02-2.59-9.88-5.38-20.45-7.67-31.64-7.25-3.36,.13-6.75-.17-9.85-1.27-10.17-3.6-19.98-1.52-29.82,1.27-15.14,4.29-29.92,9.73-45.48,12.69-18.97,3.61-38.07,4.31-57.13,2.88-18.21-1.37-36.11-.25-54.07,2.21-1.96,.27-3.48,1.41-5.63,1.4-11.34-.05-22.45-1.42-33.56-3.76-5.99-1.26-14.26,1.26-17.69,8.99-1.62,3.65-3.35,7.24-5.07,10.84-5.3,11.08-11.31,21.93-13.01,34.33-1.65,12.03-4.19,23.85-7.08,35.63-2.37,9.63-5.11,19.37-4.67,29.31,.51,11.65,.84,23.28,.74,34.93-.05,6.16,.48,12.23,1.43,18.34,1.97,12.64,3.7,25.34,1.45,38.21-.77,4.39-1.35,8.89-.74,13.41,1.44,10.71,2.24,21.47,2.94,32.25,1.52,23.57-.42,46.88-5.53,69.86-2.92,13.1-6.93,25.96-10.22,38.98-2.45,9.65-4.95,19.36-2.7,29.47,2.81,12.63-.03,24.25-5.69,35.62-4.7,9.44-7.31,19.26-5.57,30.24,1.82,11.43,4.05,22.95,3.14,34.63-.67,8.58-2.1,17.1-2.86,25.68-1.07,12.06-2.08,24.14-2.68,36.24-.48,9.62-1.76,19.22-.94,28.89,.55,6.5,3.44,11.4,9.12,14.84,4.04,2.45,7.85,5.3,11.67,8.09,6.59,4.82,13.4,8.96,21.71,10.33,6.88,1.13,14.49-.19,20.53,3.2,6.99,3.92,13.21,2.34,19.88,.54,4.97-1.34,9.96-2.61,14.91-4.04,14.99-4.35,29.74-9.41,44.27-15.1,2.75-1.08,3.98-2,1-4.54-3.74-3.18-4.73-7.86-5.68-12.46-1.24-5.99-1.25-12.38-4.23-17.85-7.95-14.6-16.91-28.57-27.3-41.58-8.79-11.01-17.92-21.76-26.32-33.06-14.14-19.03-21.6-40.85-26.26-63.93-2.65-13.13-5.75-26.48-13.94-37.49-6.86-9.23-10.76-19.21-12.35-30.5-.64-4.54-.93-8.73,.34-13.17,4.07-14.2,7.33-28.56,9.42-43.22,3.4-23.78,3.48-47.49,0-71.25-.74-5.08-.83-10.26-1.05-15.4-.04-1.02,.18-2.48,1.69-2.66,1.01-.12,1.32,.89,1.64,1.61,4.18,9.61,10.51,18.02,15.27,27.32,11.76,22.96,16.28,47.98,21.06,72.95,1.77,9.26,2.52,18.81,7.12,27.33,1.58,2.92,2.99,6.04,5.08,8.56,7.28,8.75,8.66,19.09,8.98,29.9,.38,12.92,2.5,25.26,10.62,36.08,4.95,6.59,9.14,13.8,13.23,20.99,8.76,15.38,11.76,33.01,18.81,49.1,6.98,15.96,12.6,32.54,21.19,47.76,2.6,4.61,6.49,8.45,12.47,8.97,17.8,1.55,35.56,5.2,53.43,.34,3.11-.85,6.68-.74,7.84,3.23,1.12,3.81,2.66,3.18,5.25,1.43,18.89-12.79,36.67-26.99,53.63-42.22,25.08-22.53,47.04-47.87,67.44-74.66,6.76-8.87,10.06-17.93,10.02-29.58-.43-138.36-.28-276.72-.27-415.07,0-5.83-.09-11.66,.01-17.48,.04-2.3-.46-3.87-3.01-4.21-9.38-1.25-18.77-1.93-28.49-1.28ZM133.77,169.16c.21,.46,.43,.92,.64,1.38H868.19c.14-.47,.27-.94,.41-1.41C756.59,52.16,620.34-4.62,457.66,8.6c-128.83,10.47-236.03,66.72-323.89,160.56Zm783.75,65.38c-1.57,2.94-1.24,5.76-1.24,8.53,0,88.4,0,176.79,0,265.19,0,84.23,0,168.47,0,252.7,0,1.33-.05,2.67,.07,3.99,.06,.61,.33,1.44,.78,1.71,.94,.56,1.5-.37,1.91-1.02,1.41-2.25,2.69-4.58,4.1-6.84,19.88-31.87,35.32-65.83,47.23-101.4,8.7-26.01,15.2-52.59,19.29-79.73,2.59-17.24,4.73-34.56,5.12-51.98,.46-20.78,.81-41.57-.83-62.35-1.51-19.21-3.75-38.32-7.51-57.19-7.29-36.6-18.26-72.08-33.58-106.17-10.16-22.6-21.81-44.38-35.32-65.44ZM84.96,768.35c1.12-7.72,.77-530.16-.27-533.67-104.82,156.92-103.6,377.97,.27,533.67Zm330.57,227.83c-134.4-25.75-241.96-93.95-323.69-204.89,0,2.82,0,4.44,0,6.05,0,64.4,.04,128.81-.12,193.21-.01,4.68,1.34,5.73,5.84,5.72,68.73-.14,137.47-.1,206.2-.1,37.26,0,74.52,0,111.78,0Zm186.26-.03h4.08c99.56,0,199.12-.02,298.68,.11,4.54,0,5.56-1.54,5.55-5.78-.12-65.26-.08-130.52-.12-195.78,0-.85,.58-2.04-1.06-2.57-10.09,14.14-21,27.7-32.44,40.87-20.89,24.06-44.16,45.6-69.26,65.06-28.81,22.34-59.77,41.3-92.89,56.76-26.87,12.55-54.54,22.7-83.08,30.64-9.8,2.72-20.27,3.6-29.46,10.68ZM908.82,211.32c.4-.16,.79-.33,1.19-.49,0-10.13,0-20.26,0-30.38,0-1.77-.02-3.34-2.52-3.33-7.87,.06-15.73,.02-24.33,.02,9.42,11.56,18.01,22.5,25.65,34.18Zm-816.99,.01c9.24-11.9,17.68-22.77,26.54-34.19-8.4,0-16.16,.02-23.92-.02-1.92-.01-2.65,.83-2.64,2.7,.04,10.07,.02,20.15,.02,31.5ZM708.34,950.69c10.68-4.56,20.03-9.49,29.16-14.87-11.45,.75-22.12,3.08-29.16,14.87Zm-184.75,45.59c11.4-1.26,21.62-.98,31.49-3.73-10.22-.17-20.59-1.72-31.49,3.73Z"/>
      <path class="cls-3" d="M133.77,169.16C221.62,75.31,328.83,19.07,457.66,8.6c162.68-13.22,298.93,43.56,410.94,160.54-.14,.47-.27,.94-.41,1.41H134.41c-.21-.46-.43-.92-.64-1.38Z"/>
      <path class="cls-3" d="M917.52,234.54c13.51,21.06,25.16,42.84,35.32,65.44,15.32,34.09,26.29,69.57,33.58,106.17,3.76,18.87,5.99,37.98,7.51,57.19,1.64,20.79,1.29,41.57,.83,62.35-.38,17.42-2.52,34.75-5.12,51.98-4.09,27.14-10.58,53.72-19.29,79.73-11.9,35.57-27.35,69.53-47.23,101.4-1.41,2.25-2.69,4.59-4.1,6.84-.41,.65-.97,1.58-1.91,1.02-.45-.27-.72-1.1-.78-1.71-.12-1.32-.07-2.66-.07-3.99,0-84.23,0-168.47,0-252.7,0-88.4,0-176.79,0-265.19,0-2.76-.33-5.59,1.24-8.53Z"/>
      <path class="cls-3" d="M84.96,768.35c-103.87-155.71-105.08-376.76-.27-533.67,1.04,3.51,1.39,525.95,.27,533.67Z"/>
      <path class="cls-3" d="M415.53,996.18c-37.26,0-74.52,0-111.78,0-68.73,0-137.47-.04-206.2,.1-4.49,0-5.85-1.04-5.84-5.72,.17-64.4,.12-128.81,.12-193.21,0-1.62,0-3.23,0-6.05,81.73,110.94,189.29,179.14,323.69,204.89Z"/>
      <path class="cls-3" d="M601.78,996.14c9.19-7.08,19.66-7.96,29.46-10.68,28.54-7.94,56.2-18.09,83.08-30.64,33.12-15.47,64.08-34.43,92.89-56.76,25.11-19.46,48.37-41.01,69.26-65.06,11.44-13.17,22.35-26.72,32.44-40.87,1.64,.53,1.06,1.72,1.06,2.57,.03,65.26,0,130.52,.12,195.78,0,4.24-1.01,5.78-5.55,5.78-99.56-.12-199.12-.1-298.68-.11h-4.08Z"/>
      <path class="cls-3" d="M908.82,211.32c-7.64-11.68-16.23-22.62-25.65-34.18,8.6,0,16.46,.04,24.33-.02,2.49-.02,2.52,1.56,2.52,3.33-.01,10.13,0,20.26,0,30.38-.4,.16-.79,.33-1.19,.49Z"/>
      <path class="cls-3" d="M91.83,211.33c0-11.36,.02-21.43-.02-31.5,0-1.87,.72-2.71,2.64-2.7,7.76,.04,15.52,.02,23.92,.02-8.86,11.42-17.3,22.29-26.54,34.19Z"/>
      <path class="cls-3" d="M708.34,950.69c7.05-11.79,17.71-14.12,29.16-14.87-9.13,5.38-18.48,10.3-29.16,14.87Z"/>
      <path class="cls-3" d="M523.59,996.27c10.9-5.45,21.27-3.9,31.49-3.73-9.87,2.75-20.09,2.47-31.49,3.73Z"/>
      <path class="cls-1" d="M838.09,184.93c-.12,.15-.24,.3-.36,.45,.01-.09,0-.23,.05-.27,.09-.08,.23-.09,.35-.14,0,0-.04-.04-.04-.04Z"/>
      <path class="cls-2" d="M415.26,560.42c.19-.44,.07-1.4,.83-1.01,.54,.28,.17,1.02-.38,1.39-.15-.13-.3-.26-.45-.38Z"/>
    </g>
  </g>
</svg>